0
SECTION
2
ENTITIES
  0
HATCH
  5
187C
330
1F
100
AcDbEntity
  8
0
 62
     7
100
AcDbHatch
 10
0.0
 20
0.0
 30
-0.00000000000009
210
0.0
220
0.0
230
1.0
  2
SOLID
 70
     1
 71
     0
 91
       17
 92
        1
 93
       11
 72
     1
 10
18.83246519243721
 20
36.39138705292498
 11
18.79246519243725
 21
36.39138705292498
 72
     1
 10
18.79246519243725
 20
36.39138705292498
 11
18.75246519243717
 21
36.39138705292498
 72
     1
 10
18.75246519243717
 20
36.39138705292498
 11
18.75246519243717
 21
35.97005933332366
 72
     1
 10
18.75246519243717
 20
35.97005933332457
 11
18.74246519243718
 21
35.97005933332457
 72
     1
 10
18.74246519243718
 20
35.97005933332457
 11
18.74246519243695
 21
31.9429668230423
 72
     1
 10
18.74246519243695
 20
31.9429668230423
 11
18.24246519243695
 21
31.9429668230423
 72
     1
 10
18.24246519243695
 20
31.9429668230423
 11
18.24246519243695
 21
31.84330532720196
 72
     1
 10
18.24246519243695
 20
31.84330532720196
 11
18.84246519243698
 21
31.84138705292571
 72
     1
 10
18.84246519243698
 20
31.84138705292571
 11
18.8424651924372
 21
35.97005933332457
 72
     1
 10
18.8424651924372
 20
35.97005933332457
 11
18.83246519243733
 21
35.97005933332457
 72
     1
 10
18.83246519243721
 20
35.97005933332457
 11
18.83246519243721
 21
36.39138705292589
 97
        0
 92
        1
 93
        6
 72
     1
 10
27.83198506990573
 20
36.39138705292498
 11
27.79198506990576
 21
36.39138705292498
 72
     1
 10
27.79198506990588
 20
36.39138705292498
 11
27.75198506990591
 21
36.39138705292498
 72
     1
 10
27.7519850699058
 20
36.39138705292498
 11
27.7519850699058
 21
36.04988484629484
 72
     1
 10
27.7519850699058
 20
36.04988484629484
 11
27.78995608473394
 21
36.04988484629484
 72
     1
 10
27.78995608473394
 20
36.04988484629484
 11
27.83198506990573
 21
36.04988484629484
 72
     1
 10
27.83198506990573
 20
36.04988484629484
 11
27.83198506990573
 21
36.39138705292498
 97
        0
 92
        1
 93
        6
 72
     1
 10
27.83198506990573
 20
36.04988484629484
 11
27.78995608473394
 21
36.04988484629484
 72
     1
 10
27.78995608473394
 20
36.04988484629484
 11
27.7519850699058
 21
36.04988484629484
 72
     1
 10
27.7519850699058
 20
36.04988484629484
 11
27.7519850699058
 21
35.97005933332457
 72
     1
 10
27.7519850699058
 20
35.97005933332457
 11
27.79198506990576
 21
35.97005933332457
 72
     1
 10
27.79198506990588
 20
35.97005933332457
 11
27.83198506990584
 21
35.97005933332457
 72
     1
 10
27.83198506990573
 20
35.97005933332457
 11
27.83198506990573
 21
36.04988484629484
 97
        0
 92
        1
 93
       13
 72
     1
 10
7.393683706034949
 20
33.53404811365726
 11
7.382857636334734
 21
33.5152968108905
 72
     1
 10
7.382857636334734
 20
33.5152968108905
 11
7.368683706034858
 21
33.49074684346851
 72
     1
 10
7.368683706034972
 20
33.4907468434676
 11
14.35764399893674
 21
29.45566873678854
 72
     1
 10
14.35764399893674
 20
29.45566873678945
 11
14.36607794259555
 21
29.47027675571462
 72
     1
 10
14.36607794259555
 20
29.47027675571462
 11
14.38264399893671
 21
29.4989700069782
 72
     1
 10
14.38264399893671
 20
29.4989700069782
 11
12.0151549057307
 21
30.86584047231736
 72
     1
 10
12.0151549057307
 20
30.86584047231736
 11
12.35999804830487
 21
31.45938119945822
 72
     1
 10
12.35999804830487
 20
31.45938119945822
 11
12.31679708452396
 21
31.48448406765692
 72
     1
 10
12.31679708452396
 20
31.48448406765692
 11
12.31676461761629
 21
31.48442863304899
 72
     1
 10
12.31676461761629
 20
31.48442863304899
 11
12.27359574042123
 21
31.5095871568501
 72
     1
 10
12.27359574042111
 20
31.50958715684919
 11
12.27359573885735
 21
31.50958715775778
 72
     1
 10
12.27359573885747
 20
31.50958715775869
 11
11.92870237193847
 21
30.91575386597742
 72
     1
 10
11.92870237193847
 20
30.91575386597742
 11
7.393683706034949
 21
33.53404811365726
 97
        0
 92
        1
 93
        4
 72
     1
 10
7.368683706034972
 20
33.4907468434676
 11
7.343683706034994
 21
33.44744557327795
 72
     1
 10
7.343683706034994
 20
33.44744557327886
 11
14.33264399893676
 21
29.41236746659979
 72
     1
 10
14.33264399893676
 20
29.41236746659979
 11
14.35764399893674
 21
29.45566873678945
 72
     1
 10
14.35764399893674
 20
29.45566873678945
 11
7.368683706034972
 21
33.49074684346851
 97
        0
 92
        1
 93
       13
 72
     1
 10
12.84246519243732
 20
35.97005933332457
 11
12.74246519243729
 21
35.97005933332457
 72
     1
 10
12.74246519243729
 20
35.97005933332457
 11
12.74246519243729
 21
32.31677575055073
 72
     1
 10
12.74246519243729
 20
32.31677575055073
 11
12.72565371705718
 21
32.28783372617454
 72
     1
 10
12.72565371705718
 20
32.28783372617363
 11
12.81217509525527
 21
32.23755858036293
 72
     1
 10
12.81217509525527
 20
32.23755858036293
 11
12.84246519243732
 21
32.28968654362779
 72
     1
 10
12.84246519243732
 20
32.28968654362779
 11
13.7924215430055
 21
32.2900061633427
 72
     1
 10
13.7924215430055
 20
32.2900061633427
 11
13.7924215430055
 21
31.84170667264061
 72
     1
 10
13.7924215430055
 20
31.84170667264061
 11
13.94242154300548
 21
31.84170667264061
 72
     1
 10
13.94242154300548
 20
31.84170667264061
 11
13.94242154300548
 21
31.94170667264098
 72
     1
 10
13.94242154300548
 20
31.94170667264007
 11
13.89242154300553
 21
31.94170667264007
 72
     1
 10
13.89242154300553
 20
31.94170667264007
 11
13.89242154300553
 21
32.39000616334215
 72
     1
 10
13.89242154300553
 20
32.39000616334306
 11
12.84246519243732
 21
32.38968654362816
 72
     1
 10
12.84246519243732
 20
32.38968654362816
 11
12.84246519243732
 21
35.97005933332457
 97
        0
 92
        1
 93
        4
 72
     1
 10
12.83246519243721
 20
36.04988484629484
 11
12.75246519243717
 21
36.04988484629484
 72
     1
 10
12.75246519243717
 20
36.04988484629484
 11
12.75246519243717
 21
35.97005933332457
 72
     1
 10
12.75246519243717
 20
35.97005933332457
 11
12.83246519243721
 21
35.97005933332457
 72
     1
 10
12.83246519243721
 20
35.97005933332457
 11
12.83246519243721
 21
36.04988484629484
 97
        0
 92
        1
 93
        5
 72
     1
 10
12.83246519243721
 20
36.39138705292498
 11
12.79246519243725
 21
36.39138705292498
 72
     1
 10
12.79246519243725
 20
36.39138705292498
 11
12.75246519243717
 21
36.39138705292498
 72
     1
 10
12.75246519243717
 20
36.39138705292498
 11
12.75246519243717
 21
36.04988484629484
 72
     1
 10
12.75246519243717
 20
36.04988484629484
 11
12.83246519243721
 21
36.04988484629484
 72
     1
 10
12.83246519243721
 20
36.04988484629484
 11
12.83246519243721
 21
36.39138705292498
 97
        0
 92
        1
 93
        8
 72
     1
 10
15.8424651924372
 20
35.96645108842949
 11
15.83246519243733
 21
35.97005933332457
 72
     1
 10
15.83246519243721
 20
35.97005933332457
 11
15.83246519243721
 21
36.39138705292589
 72
     1
 10
15.83246519243721
 20
36.39138705292498
 11
15.75246519243717
 21
36.39138705292498
 72
     1
 10
15.75246519243717
 20
36.39138705292498
 11
15.75246519243717
 21
35.97005933332366
 72
     1
 10
15.75246519243717
 20
35.97005933332457
 11
15.74246519243718
 21
35.97005933332457
 72
     1
 10
15.74246519243718
 20
35.97005933332457
 11
15.8424651924372
 21
35.97005933332457
 72
     1
 10
15.8424651924372
 20
35.97005933332457
 11
15.84246519243698
 21
31.94138705292607
 72
     1
 10
15.84246519243698
 20
31.94138705292517
 11
15.8424651924372
 21
35.96645108842858
 97
        0
 92
        1
 93
        8
 72
     1
 10
15.84246519243698
 20
31.94138705292517
 11
15.8424651924372
 21
35.97005933332366
 72
     1
 10
15.8424651924372
 20
35.97005933332457
 11
15.74246519243718
 21
35.97005933332457
 72
     1
 10
15.74246519243718
 20
35.97005933332457
 11
15.74246519243695
 21
31.94138705292607
 72
     1
 10
15.74246519243695
 20
31.94138705292517
 11
14.84243494175928
 21
31.94184438349293
 72
     1
 10
14.84243494175939
 20
31.94184438349293
 11
14.84243494175939
 21
31.8413870529248
 72
     1
 10
14.84243494175939
 20
31.84138705292571
 11
17.34245179368315
 21
31.84170667264061
 72
     1
 10
17.34245179368315
 20
31.8417066726397
 11
17.34245179368315
 21
31.94138705292517
 72
     1
 10
17.34245179368315
 20
31.94138705292517
 11
15.84246519243698
 21
31.94138705292517
 97
        0
 92
        1
 93
        5
 72
     1
 10
23.33246519243721
 20
36.39138705292498
 11
23.29246519243725
 21
36.39138705292498
 72
     1
 10
23.29246519243725
 20
36.39138705292498
 11
23.25246519243717
 21
36.39138705292498
 72
     1
 10
23.25246519243717
 20
36.39138705292498
 11
23.25246519243717
 21
36.04988484629484
 72
     1
 10
23.25246519243717
 20
36.04988484629484
 11
23.33246519243721
 21
36.04988484629484
 72
     1
 10
23.33246519243721
 20
36.04988484629484
 11
23.33246519243721
 21
36.39138705292498
 97
        0
 92
        1
 93
        4
 72
     1
 10
23.33246519243721
 20
36.04988484629484
 11
23.25246519243717
 21
36.04988484629484
 72
     1
 10
23.25246519243717
 20
36.04988484629484
 11
23.25246519243717
 21
35.97005933332457
 72
     1
 10
23.25246519243717
 20
35.97005933332457
 11
23.33246519243721
 21
35.97005933332457
 72
     1
 10
23.33246519243721
 20
35.97005933332457
 11
23.33246519243721
 21
36.04988484629484
 97
        0
 92
        1
 93
        6
 72
     1
 10
23.34519047265144
 20
35.97005933332457
 11
23.33246519243721
 21
35.97005933332457
 72
     1
 10
23.33246519243721
 20
35.97005933332457
 11
23.24516296315733
 21
35.97005933332457
 72
     1
 10
23.24516296315733
 20
35.97005933332457
 11
23.24516296315733
 21
33.04138705293008
 72
     1
 10
23.24516296315733
 20
33.04138705293008
 11
23.3348041523476
 21
33.04138705293008
 72
     1
 10
23.33480415234771
 20
33.04138705293008
 11
23.34519047265155
 21
33.04140039905269
 72
     1
 10
23.34519047265144
 20
33.04140039905269
 11
23.34519047265144
 21
35.97005933332366
 97
        0
 92
        1
 93
       11
 72
     1
 10
23.34543321176409
 20
32.14138705292953
 11
23.34509372062837
 21
32.14138705292953
 72
     1
 10
23.34509372062826
 20
32.14138705292953
 11
23.29512874138436
 21
32.14132281083221
 72
     1
 10
23.29512874138436
 20
32.14132281083221
 11
23.29512852054779
 21
32.14138705292953
 72
     1
 10
23.29512852054779
 20
32.14138705292953
 11
23.24516376033228
 21
32.14138705292953
 72
     1
 10
23.24516376033228
 20
32.14138705292953
 11
23.24500896620293
 21
31.63202801738407
 72
     1
 10
23.24500896620305
 20
31.63202801738498
 11
23.34529109770222
 21
31.63202801738498
 72
     1
 10
23.3452910977021
 20
31.63202801738498
 11
23.34534951006128
 21
31.84138705292662
 72
     1
 10
23.34534951006128
 20
31.84138705292662
 11
24.73899587508868
 21
31.84138705292662
 72
     1
 10
24.73899587508868
 20
31.84138705292571
 11
24.73899587508868
 21
31.94138705292698
 72
     1
 10
24.73899587508868
 20
31.94138705292789
 11
23.34537741062888
 21
31.94138705292789
 72
     1
 10
23.34537741062888
 20
31.94138705292789
 11
23.34543321176409
 21
32.14138705293044
 97
        0
 92
        1
 93
       12
 72
     1
 10
27.84344979207901
 20
35.97005933332457
 11
27.79198506990588
 21
35.97005933332457
 72
     1
 10
27.79198506990588
 20
35.97005933332457
 11
27.79023821623343
 21
35.97005933332457
 72
     1
 10
27.79023821623332
 20
35.97005933332457
 11
27.74373192357825
 21
35.97005933332457
 72
     1
 10
27.74373192357825
 20
35.97005933332457
 11
27.74373192357825
 21
31.94138705292789
 72
     1
 10
27.74373192357825
 20
31.94138705292789
 11
24.73899587508868
 21
31.94138705292789
 72
     1
 10
24.73899587508868
 20
31.94138705292789
 11
24.73899587508868
 21
31.84138705292662
 72
     1
 10
24.73899587508868
 20
31.84138705292571
 11
26.26848599461391
 21
31.84138705292571
 72
     1
 10
26.26848599461391
 20
31.84138705292571
 11
26.26864078874314
 21
31.63202801738498
 72
     1
 10
26.26864078874314
 20
31.63202801738498
 11
26.36891024017484
 21
31.63202801738498
 72
     1
 10
26.36891024017484
 20
31.63202801738498
 11
26.3687554460455
 21
31.84138705292571
 72
     1
 10
26.36875544604538
 20
31.84138705292571
 11
27.84344979207901
 21
31.84138705292571
 72
     1
 10
27.84344979207913
 20
31.8413870529248
 11
27.84344979207901
 21
35.97005933332366
 97
        0
 92
        1
 93
        6
 72
     1
 10
26.36875544604561
 20
30.73201462140696
 11
26.31879046378049
 21
30.73195132769888
 72
     1
 10
26.31879046378049
 20
30.73195132769888
 11
26.31879024740545
 21
30.73201462140696
 72
     1
 10
26.31879024740545
 20
30.73201462140696
 11
26.2684859946138
 21
30.73201462140696
 72
     1
 10
26.2684859946138
 20
30.73201462140696
 11
26.2684859946138
 21
30.58138705292549
 72
     1
 10
26.2684859946138
 20
30.58138705292549
 11
26.3687554460455
 21
30.58138705292549
 72
     1
 10
26.36875544604561
 20
30.58138705292549
 11
26.36875544604561
 21
30.73201462140696
 97
        0
 92
        1
 93
        6
 72
     1
 10
23.34543321176398
 20
30.73201462140696
 11
23.29512895897233
 21
30.73201462140696
 72
     1
 10
23.29512895897244
 20
30.73201462140696
 11
23.2951287425974
 21
30.73195132769888
 72
     1
 10
23.29512874259729
 20
30.73195132769888
 11
23.24516376033216
 21
30.73201462140696
 72
     1
 10
23.24516376033228
 20
30.73201462140696
 11
23.24516376033228
 21
30.58138705292549
 72
     1
 10
23.24516376033228
 20
30.58138705292549
 11
23.34543321176398
 21
30.58138705292549
 72
     1
 10
23.34543321176398
 20
30.58138705292549
 11
23.34543321176398
 21
30.73201462140696
 97
        0
 75
     1
 76
     1
 98
       19
 10
18.79492823850103
 20
36.23461099661381
 10
62.1473413993931
 20
59.85542162336696
 10
27.79121227252006
 20
36.16276157476659
 10
27.79121227252006
 20
36.03142587734965
 10
9.354415231669918
 20
32.35749627703535
 10
9.316282680575455
 20
32.33208707455469
 10
12.76310216443028
 20
34.51290301493373
 10
12.77611324238148
 20
36.00841312827288
 10
12.77611324238148
 20
36.16446636496494
 10
17.30394648365029
 20
36.08643974661936
 10
17.30394648365029
 20
35.98240439874735
 10
17.30394648365029
 20
35.81334679729207
 10
23.29215937695744
 20
36.20413829435074
 10
23.30517045490842
 20
35.9830632338435
 10
23.30517045490842
 20
35.86602309144018
 10
23.29215937695744
 20
31.99070133342957
 10
25.26983312442485
 20
31.87366119102626
 10
26.33761610463534
 20
30.6615215107031
 10
23.31373872575443
 20
30.63922812978035
450
        0
451
        0
460
0.0
461
0.0
452
        0
462
0.0
453
        2
463
0.0
 63
     5
421
      255
463
1.0
 63
     2
421
 16776960
470
LINEAR
1001
GradientColor1ACI
1070
     5
1001
GradientColor2ACI
1070
     2
1001
ACAD
1010
0.0
1020
0.0
1030
0.0
0
ENDSEC
0
EOF
